<svg xmlns="http://www.w3.org/2000/svg" viewBox="0 0 240 320" fill="none" aria-hidden="true">
  <defs>
    <linearGradient id="g" x1="120" y1="20" x2="120" y2="300" gradientUnits="userSpaceOnUse">
      <stop stop-color="#f5e6c8"/>
      <stop offset="1" stop-color="#c9a227"/>
    </linearGradient>
    <radialGradient id="halo" cx="0" cy="0" r="1" gradientUnits="userSpaceOnUse" gradientTransform="translate(120 88) rotate(90) scale(70)">
      <stop stop-color="#fff8e7" stop-opacity="0.55"/>
      <stop offset="1" stop-color="#fff8e7" stop-opacity="0"/>
    </radialGradient>
  </defs>
  <circle cx="120" cy="88" r="68" fill="url(#halo)"/>
  <path d="M120 28c-8 18-22 28-38 32 14 2 26 10 34 24 2-18 10-32 24-42-16 4-28 14-36 28 8-14 22-24 38-28-14 10-22 24-24 42 8-14 20-22 36-24-16-4-30-14-38-32z" fill="url(#g)" opacity="0.95"/>
  <path d="M118 92v148" stroke="url(#g)" stroke-width="10" stroke-linecap="round"/>
  <path d="M88 228h60" stroke="url(#g)" stroke-width="8" stroke-linecap="round"/>
  <path d="M120 92 L78 148 M120 92 L162 148 M120 92 L120 56" stroke="url(#g)" stroke-width="9" stroke-linecap="round" stroke-linejoin="round"/>
  <circle cx="120" cy="248" r="14" fill="#c9a227" opacity="0.35"/>
</svg>
